<mxfile host="Electron" modified="2024-01-04T07:35:19.237Z" agent="Mozilla/5.0 (X11; Linux x86_64) AppleWebKit/537.36 (KHTML, like Gecko) draw.io/22.1.16 Chrome/120.0.6099.109 Electron/28.1.0 Safari/537.36" etag="jT4GRYbha3i1ZF0Kgtwq" version="22.1.16" type="device">
  <diagram name="第 1 页" id="U1m3cet3WzzuoFpLCefk">
    <mxGraphModel dx="987" dy="726" grid="1" gridSize="10" guides="1" tooltips="1" connect="1" arrows="1" fold="1" page="1" pageScale="1" pageWidth="827" pageHeight="1169" math="0" shadow="0">
      <root>
        <mxCell id="0" />
        <mxCell id="1" parent="0" />
        <mxCell id="wQLcqNSdgIWG32abCN12-3" value="Host" style="rounded=0;whiteSpace=wrap;html=1;labelBackgroundColor=none;verticalAlign=bottom;fontStyle=1;strokeWidth=2;fontSize=24;" vertex="1" parent="1">
          <mxGeometry x="70" y="470" width="370" height="310" as="geometry" />
        </mxCell>
        <mxCell id="wQLcqNSdgIWG32abCN12-2" value="GUI (Qt C++)" style="rounded=0;whiteSpace=wrap;html=1;labelBackgroundColor=none;fontStyle=1;fontSize=14;" vertex="1" parent="1">
          <mxGeometry x="100" y="500" width="310" height="30" as="geometry" />
        </mxCell>
        <mxCell id="wQLcqNSdgIWG32abCN12-10" value="tuna base tool (Rust)" style="rounded=0;whiteSpace=wrap;html=1;labelBackgroundColor=none;fontStyle=1;fontSize=14;" vertex="1" parent="1">
          <mxGeometry x="100" y="545" width="170" height="25" as="geometry" />
        </mxCell>
        <mxCell id="wQLcqNSdgIWG32abCN12-11" value="tuna host libraries (Rust)" style="rounded=0;whiteSpace=wrap;html=1;labelBackgroundColor=none;fontStyle=1;fontSize=14;" vertex="1" parent="1">
          <mxGeometry x="180" y="584.5" width="230" height="55.5" as="geometry" />
        </mxCell>
        <mxCell id="wQLcqNSdgIWG32abCN12-13" value="tuna host libraries (C)" style="rounded=0;whiteSpace=wrap;html=1;labelBackgroundColor=none;fontStyle=1;fontSize=14;" vertex="1" parent="1">
          <mxGeometry x="100" y="585" width="70" height="55.5" as="geometry" />
        </mxCell>
        <mxCell id="wQLcqNSdgIWG32abCN12-14" value="tokio::net" style="rounded=0;whiteSpace=wrap;html=1;labelBackgroundColor=none;fontStyle=1;fontSize=14;" vertex="1" parent="1">
          <mxGeometry x="100" y="660" width="100" height="30" as="geometry" />
        </mxCell>
        <mxCell id="wQLcqNSdgIWG32abCN12-15" value="std&lt;span style=&quot;border: 0px; margin: 0px; padding: 0px; font-family: Menlo, Monaco, Consolas, &amp;quot;Andale Mono&amp;quot;, &amp;quot;lucida console&amp;quot;, &amp;quot;Courier New&amp;quot;, monospace; font-size: 13.2px; font-weight: 400; text-align: start;&quot;&gt;::&lt;/span&gt;&lt;span style=&quot;border: 0px; margin: 0px; padding: 0px; font-family: Menlo, Monaco, Consolas, &amp;quot;Andale Mono&amp;quot;, &amp;quot;lucida console&amp;quot;, &amp;quot;Courier New&amp;quot;, monospace; font-size: 13.2px; font-weight: 400; text-align: start; color: rgb(17, 102, 68);&quot;&gt;fs&lt;/span&gt;" style="rounded=0;whiteSpace=wrap;html=1;labelBackgroundColor=none;fontStyle=1;fontSize=14;" vertex="1" parent="1">
          <mxGeometry x="210" y="660" width="90" height="30" as="geometry" />
        </mxCell>
        <mxCell id="wQLcqNSdgIWG32abCN12-17" value="" style="shape=flexArrow;endArrow=classic;startArrow=classic;html=1;rounded=0;entryX=0.75;entryY=1;entryDx=0;entryDy=0;width=6.8965517241379315;startSize=2.6965517241379313;endSize=2.6965517241379313;" edge="1" parent="1">
          <mxGeometry width="100" height="100" relative="1" as="geometry">
            <mxPoint x="333" y="582" as="sourcePoint" />
            <mxPoint x="332.5" y="532" as="targetPoint" />
          </mxGeometry>
        </mxCell>
        <mxCell id="wQLcqNSdgIWG32abCN12-18" value="APIs Calling" style="text;html=1;align=center;verticalAlign=middle;resizable=0;points=[];autosize=1;strokeColor=none;fillColor=none;fontStyle=1" vertex="1" parent="1">
          <mxGeometry x="328" y="541" width="90" height="30" as="geometry" />
        </mxCell>
        <mxCell id="wQLcqNSdgIWG32abCN12-19" value="rustfft" style="rounded=0;whiteSpace=wrap;html=1;labelBackgroundColor=none;fontStyle=1;fontSize=14;" vertex="1" parent="1">
          <mxGeometry x="310" y="660" width="100" height="30" as="geometry" />
        </mxCell>
        <mxCell id="wQLcqNSdgIWG32abCN12-23" value="Device" style="rounded=0;whiteSpace=wrap;html=1;labelBackgroundColor=none;verticalAlign=bottom;fontStyle=1;strokeWidth=2;fontSize=24;" vertex="1" parent="1">
          <mxGeometry x="540" y="510" width="340" height="270" as="geometry" />
        </mxCell>
        <mxCell id="wQLcqNSdgIWG32abCN12-22" value="Device" style="rounded=0;whiteSpace=wrap;html=1;labelBackgroundColor=none;verticalAlign=bottom;fontStyle=1;strokeWidth=2;fontSize=24;" vertex="1" parent="1">
          <mxGeometry x="530" y="500" width="340" height="270" as="geometry" />
        </mxCell>
        <mxCell id="wQLcqNSdgIWG32abCN12-21" value="Device" style="rounded=0;whiteSpace=wrap;html=1;labelBackgroundColor=none;verticalAlign=bottom;fontStyle=1;strokeWidth=2;fontSize=24;" vertex="1" parent="1">
          <mxGeometry x="520" y="490" width="340" height="270" as="geometry" />
        </mxCell>
        <mxCell id="wQLcqNSdgIWG32abCN12-20" value="Device" style="rounded=0;whiteSpace=wrap;html=1;labelBackgroundColor=none;verticalAlign=bottom;fontStyle=1;strokeWidth=2;fontSize=24;" vertex="1" parent="1">
          <mxGeometry x="510" y="480" width="340" height="270" as="geometry" />
        </mxCell>
        <mxCell id="wQLcqNSdgIWG32abCN12-4" value="Device" style="rounded=0;whiteSpace=wrap;html=1;labelBackgroundColor=none;verticalAlign=bottom;fontStyle=1;strokeWidth=2;fontSize=24;" vertex="1" parent="1">
          <mxGeometry x="500" y="470" width="340" height="270" as="geometry" />
        </mxCell>
        <mxCell id="wQLcqNSdgIWG32abCN12-12" value="tuna device libraries (Rust and C)" style="rounded=0;whiteSpace=wrap;html=1;labelBackgroundColor=none;fontStyle=1;fontSize=14;" vertex="1" parent="1">
          <mxGeometry x="520" y="585" width="300" height="55" as="geometry" />
        </mxCell>
        <mxCell id="wQLcqNSdgIWG32abCN12-24" value="" style="shape=flexArrow;endArrow=classic;startArrow=classic;html=1;rounded=0;entryX=0;entryY=0.5;entryDx=0;entryDy=0;width=6.8965517241379315;startSize=2.6965517241379313;endSize=2.6965517241379313;exitX=1;exitY=0.5;exitDx=0;exitDy=0;" edge="1" parent="1" source="wQLcqNSdgIWG32abCN12-11" target="wQLcqNSdgIWG32abCN12-12">
          <mxGeometry width="100" height="100" relative="1" as="geometry">
            <mxPoint x="343" y="592" as="sourcePoint" />
            <mxPoint x="342.5" y="542" as="targetPoint" />
          </mxGeometry>
        </mxCell>
        <mxCell id="wQLcqNSdgIWG32abCN12-25" value="tokio::net" style="rounded=0;whiteSpace=wrap;html=1;labelBackgroundColor=none;fontStyle=1;fontSize=14;" vertex="1" parent="1">
          <mxGeometry x="520" y="650" width="100" height="30" as="geometry" />
        </mxCell>
        <mxCell id="wQLcqNSdgIWG32abCN12-26" value="std&lt;span style=&quot;border: 0px; margin: 0px; padding: 0px; font-family: Menlo, Monaco, Consolas, &amp;quot;Andale Mono&amp;quot;, &amp;quot;lucida console&amp;quot;, &amp;quot;Courier New&amp;quot;, monospace; font-size: 13.2px; font-weight: 400; text-align: start;&quot;&gt;::&lt;/span&gt;&lt;span style=&quot;border: 0px; margin: 0px; padding: 0px; font-family: Menlo, Monaco, Consolas, &amp;quot;Andale Mono&amp;quot;, &amp;quot;lucida console&amp;quot;, &amp;quot;Courier New&amp;quot;, monospace; font-size: 13.2px; font-weight: 400; text-align: start; color: rgb(17, 102, 68);&quot;&gt;fs&lt;/span&gt;" style="rounded=0;whiteSpace=wrap;html=1;labelBackgroundColor=none;fontStyle=1;fontSize=14;" vertex="1" parent="1">
          <mxGeometry x="628" y="650" width="90" height="30" as="geometry" />
        </mxCell>
        <mxCell id="wQLcqNSdgIWG32abCN12-27" value="HAL::adc" style="rounded=0;whiteSpace=wrap;html=1;labelBackgroundColor=none;fontStyle=1;fontSize=14;" vertex="1" parent="1">
          <mxGeometry x="730" y="650" width="90" height="30" as="geometry" />
        </mxCell>
        <mxCell id="wQLcqNSdgIWG32abCN12-28" value="Ethernet" style="text;html=1;align=center;verticalAlign=middle;resizable=0;points=[];autosize=1;strokeColor=none;fillColor=none;fontStyle=1" vertex="1" parent="1">
          <mxGeometry x="434" y="585" width="70" height="30" as="geometry" />
        </mxCell>
        <mxCell id="wQLcqNSdgIWG32abCN12-30" value="openssl" style="rounded=0;whiteSpace=wrap;html=1;labelBackgroundColor=none;fontStyle=1;fontSize=14;" vertex="1" parent="1">
          <mxGeometry x="100" y="701" width="100" height="30" as="geometry" />
        </mxCell>
        <mxCell id="wQLcqNSdgIWG32abCN12-31" value="mbedtls" style="rounded=0;whiteSpace=wrap;html=1;labelBackgroundColor=none;fontStyle=1;fontSize=14;" vertex="1" parent="1">
          <mxGeometry x="520" y="690" width="100" height="20" as="geometry" />
        </mxCell>
        <mxCell id="wQLcqNSdgIWG32abCN12-32" value="GUI (Qt C++)" style="rounded=0;whiteSpace=wrap;html=1;labelBackgroundColor=none;fontStyle=1;fontSize=14;" vertex="1" parent="1">
          <mxGeometry x="150" y="880" width="310" height="30" as="geometry" />
        </mxCell>
        <mxCell id="wQLcqNSdgIWG32abCN12-33" value="tuna base tool (Rust)" style="rounded=0;whiteSpace=wrap;html=1;labelBackgroundColor=none;fontStyle=1;fontSize=14;" vertex="1" parent="1">
          <mxGeometry x="150" y="925" width="170" height="25" as="geometry" />
        </mxCell>
        <mxCell id="wQLcqNSdgIWG32abCN12-34" value="tuna host libraries (Rust)" style="rounded=0;whiteSpace=wrap;html=1;labelBackgroundColor=none;fontStyle=1;fontSize=14;" vertex="1" parent="1">
          <mxGeometry x="230" y="964.5" width="230" height="55.5" as="geometry" />
        </mxCell>
        <mxCell id="wQLcqNSdgIWG32abCN12-35" value="tuna host libraries (C)" style="rounded=0;whiteSpace=wrap;html=1;labelBackgroundColor=none;fontStyle=1;fontSize=14;" vertex="1" parent="1">
          <mxGeometry x="150" y="965" width="70" height="55.5" as="geometry" />
        </mxCell>
        <mxCell id="wQLcqNSdgIWG32abCN12-36" value="File&lt;br&gt;Manager" style="rounded=0;whiteSpace=wrap;html=1;labelBackgroundColor=none;fontStyle=1;fontSize=14;" vertex="1" parent="1">
          <mxGeometry x="150" y="1040" width="100" height="40" as="geometry" />
        </mxCell>
        <mxCell id="wQLcqNSdgIWG32abCN12-37" value="Ethernet&lt;br&gt;Manager" style="rounded=0;whiteSpace=wrap;html=1;labelBackgroundColor=none;fontStyle=1;fontSize=14;" vertex="1" parent="1">
          <mxGeometry x="260" y="1040" width="90" height="40" as="geometry" />
        </mxCell>
        <mxCell id="wQLcqNSdgIWG32abCN12-38" value="" style="shape=flexArrow;endArrow=classic;startArrow=classic;html=1;rounded=0;entryX=0.75;entryY=1;entryDx=0;entryDy=0;width=6.8965517241379315;startSize=2.6965517241379313;endSize=2.6965517241379313;" edge="1" parent="1">
          <mxGeometry width="100" height="100" relative="1" as="geometry">
            <mxPoint x="383" y="962" as="sourcePoint" />
            <mxPoint x="382.5" y="912" as="targetPoint" />
          </mxGeometry>
        </mxCell>
        <mxCell id="wQLcqNSdgIWG32abCN12-39" value="APIs Calling" style="text;html=1;align=center;verticalAlign=middle;resizable=0;points=[];autosize=1;strokeColor=none;fillColor=none;fontStyle=1" vertex="1" parent="1">
          <mxGeometry x="378" y="921" width="90" height="30" as="geometry" />
        </mxCell>
        <mxCell id="wQLcqNSdgIWG32abCN12-40" value="Input&lt;br&gt;Manager" style="rounded=0;whiteSpace=wrap;html=1;labelBackgroundColor=none;fontStyle=1;fontSize=14;" vertex="1" parent="1">
          <mxGeometry x="360" y="1040" width="100" height="40" as="geometry" />
        </mxCell>
        <mxCell id="wQLcqNSdgIWG32abCN12-42" value="" style="shape=flexArrow;endArrow=classic;startArrow=classic;html=1;rounded=0;entryX=0;entryY=0.5;entryDx=0;entryDy=0;width=6.8965517241379315;startSize=2.6965517241379313;endSize=2.6965517241379313;exitX=1;exitY=0.5;exitDx=0;exitDy=0;" edge="1" parent="1">
          <mxGeometry width="100" height="100" relative="1" as="geometry">
            <mxPoint x="468" y="992" as="sourcePoint" />
            <mxPoint x="578" y="993" as="targetPoint" />
          </mxGeometry>
        </mxCell>
        <mxCell id="wQLcqNSdgIWG32abCN12-43" value="Ethernet" style="text;html=1;align=center;verticalAlign=middle;resizable=0;points=[];autosize=1;strokeColor=none;fillColor=none;fontStyle=1" vertex="1" parent="1">
          <mxGeometry x="492" y="965" width="70" height="30" as="geometry" />
        </mxCell>
        <mxCell id="wQLcqNSdgIWG32abCN12-45" value="" style="sketch=0;outlineConnect=0;fontColor=#232F3E;gradientColor=none;fillColor=#7AA116;strokeColor=none;dashed=0;verticalLabelPosition=bottom;verticalAlign=top;align=center;html=1;fontSize=12;fontStyle=0;aspect=fixed;pointerEvents=1;shape=mxgraph.aws4.iot_thing_freertos_device;" vertex="1" parent="1">
          <mxGeometry x="600" y="953.75" width="78" height="78" as="geometry" />
        </mxCell>
        <mxCell id="wQLcqNSdgIWG32abCN12-46" value="Devices" style="text;html=1;align=center;verticalAlign=middle;resizable=0;points=[];autosize=1;strokeColor=none;fillColor=none;" vertex="1" parent="1">
          <mxGeometry x="604" y="1031.75" width="70" height="30" as="geometry" />
        </mxCell>
        <mxCell id="wQLcqNSdgIWG32abCN12-49" value="clap" style="rounded=0;whiteSpace=wrap;html=1;labelBackgroundColor=none;fontStyle=1;fontSize=14;" vertex="1" parent="1">
          <mxGeometry x="360" y="1090" width="100" height="20" as="geometry" />
        </mxCell>
        <mxCell id="wQLcqNSdgIWG32abCN12-50" value="std:net" style="rounded=0;whiteSpace=wrap;html=1;labelBackgroundColor=none;fontStyle=1;fontSize=14;" vertex="1" parent="1">
          <mxGeometry x="260" y="1090" width="90" height="20" as="geometry" />
        </mxCell>
        <mxCell id="wQLcqNSdgIWG32abCN12-51" value="std:io" style="rounded=0;whiteSpace=wrap;html=1;labelBackgroundColor=none;fontStyle=1;fontSize=14;" vertex="1" parent="1">
          <mxGeometry x="150" y="1090" width="100" height="20" as="geometry" />
        </mxCell>
      </root>
    </mxGraphModel>
  </diagram>
</mxfile>
